<?xml version="1.0" encoding="utf-8"?>
<svg xmlns="http://www.w3.org/2000/svg" viewBox="0 0 500 500">
  <defs>
    <linearGradient id="paint0_linear_8977_4661" x1="50.8103" y1="16.8117" x2="-2.98884" y2="27.2726" gradientUnits="userSpaceOnUse" gradientTransform="matrix(1, 0, 0, 1, 91.305932, 187.8044)">
      <stop stop-color="#4080F6"/>
      <stop offset="1" stop-color="#A356F7"/>
    </linearGradient>
  </defs>
  <text style="white-space: pre; fill: rgb(51, 51, 51); font-family: Arial, sans-serif; font-size: 28px;" x="163.65" y="217.508"> </text>
  <path d="M 147.657 227.804 L 147.657 218.088 L 148.973 218.088 L 148.973 227.804 L 147.657 227.804 Z M 155.746 227.804 L 155.746 223.926 C 155.746 223.422 155.588 223.007 155.27 222.68 C 154.953 222.354 154.542 222.19 154.038 222.19 C 153.702 222.19 153.404 222.265 153.142 222.414 C 152.881 222.564 152.676 222.769 152.526 223.03 C 152.377 223.292 152.302 223.59 152.302 223.926 L 151.784 223.632 C 151.784 223.128 151.896 222.68 152.12 222.288 C 152.344 221.896 152.657 221.588 153.058 221.364 C 153.46 221.131 153.912 221.014 154.416 221.014 C 154.92 221.014 155.364 221.14 155.746 221.392 C 156.138 221.644 156.446 221.976 156.67 222.386 C 156.894 222.788 157.006 223.217 157.006 223.674 L 157.006 227.804 L 155.746 227.804 Z M 151.042 227.804 L 151.042 221.154 L 152.302 221.154 L 152.302 227.804 L 151.042 227.804 Z M 159.652 227.804 L 159.652 218.368 L 160.912 218.368 L 160.912 227.804 L 159.652 227.804 Z M 158.014 222.302 L 158.014 221.154 L 162.55 221.154 L 162.55 222.302 L 158.014 222.302 Z M 166.66 227.944 C 165.997 227.944 165.4 227.795 164.868 227.496 C 164.336 227.188 163.916 226.773 163.608 226.25 C 163.3 225.728 163.146 225.135 163.146 224.472 C 163.146 223.819 163.295 223.231 163.594 222.708 C 163.902 222.186 164.312 221.775 164.826 221.476 C 165.348 221.168 165.932 221.014 166.576 221.014 C 167.192 221.014 167.733 221.154 168.2 221.434 C 168.676 221.714 169.044 222.102 169.306 222.596 C 169.576 223.091 169.712 223.651 169.712 224.276 C 169.712 224.37 169.707 224.472 169.698 224.584 C 169.688 224.687 169.67 224.808 169.642 224.948 L 164.028 224.948 L 164.028 223.898 L 168.97 223.898 L 168.508 224.304 C 168.508 223.856 168.428 223.478 168.27 223.17 C 168.111 222.853 167.887 222.61 167.598 222.442 C 167.308 222.265 166.958 222.176 166.548 222.176 C 166.118 222.176 165.74 222.27 165.414 222.456 C 165.087 222.643 164.835 222.904 164.658 223.24 C 164.48 223.576 164.392 223.973 164.392 224.43 C 164.392 224.897 164.485 225.308 164.672 225.662 C 164.858 226.008 165.124 226.278 165.47 226.474 C 165.815 226.661 166.212 226.754 166.66 226.754 C 167.033 226.754 167.374 226.689 167.682 226.558 C 167.999 226.428 168.27 226.232 168.494 225.97 L 169.306 226.796 C 168.988 227.17 168.596 227.454 168.13 227.65 C 167.672 227.846 167.182 227.944 166.66 227.944 Z M 171.085 227.804 L 171.085 217.808 L 172.345 217.808 L 172.345 227.804 L 171.085 227.804 Z M 174.189 227.804 L 174.189 217.808 L 175.449 217.808 L 175.449 227.804 L 174.189 227.804 Z M 177.306 227.804 L 177.306 221.154 L 178.566 221.154 L 178.566 227.804 L 177.306 227.804 Z M 177.936 219.824 C 177.703 219.824 177.512 219.75 177.362 219.6 C 177.213 219.442 177.138 219.246 177.138 219.012 C 177.138 218.788 177.213 218.602 177.362 218.452 C 177.512 218.294 177.703 218.214 177.936 218.214 C 178.17 218.214 178.361 218.294 178.51 218.452 C 178.66 218.602 178.734 218.788 178.734 219.012 C 178.734 219.246 178.66 219.442 178.51 219.6 C 178.361 219.75 178.17 219.824 177.936 219.824 Z M 183.181 230.73 C 182.5 230.73 181.893 230.604 181.361 230.352 C 180.839 230.1 180.419 229.746 180.101 229.288 L 180.913 228.462 C 181.184 228.808 181.506 229.069 181.879 229.246 C 182.253 229.433 182.696 229.526 183.209 229.526 C 183.891 229.526 184.427 229.344 184.819 228.98 C 185.221 228.626 185.421 228.145 185.421 227.538 L 185.421 225.886 L 185.645 224.388 L 185.421 222.904 L 185.421 221.154 L 186.681 221.154 L 186.681 227.538 C 186.681 228.173 186.532 228.728 186.233 229.204 C 185.944 229.68 185.533 230.054 185.001 230.324 C 184.479 230.595 183.872 230.73 183.181 230.73 Z M 183.181 227.692 C 182.575 227.692 182.029 227.548 181.543 227.258 C 181.067 226.969 180.689 226.572 180.409 226.068 C 180.129 225.555 179.989 224.981 179.989 224.346 C 179.989 223.712 180.129 223.147 180.409 222.652 C 180.689 222.148 181.067 221.752 181.543 221.462 C 182.029 221.164 182.575 221.014 183.181 221.014 C 183.704 221.014 184.166 221.117 184.567 221.322 C 184.969 221.528 185.286 221.817 185.519 222.19 C 185.762 222.554 185.893 222.984 185.911 223.478 L 185.911 225.242 C 185.883 225.728 185.748 226.157 185.505 226.53 C 185.272 226.894 184.955 227.179 184.553 227.384 C 184.152 227.59 183.695 227.692 183.181 227.692 Z M 183.433 226.502 C 183.844 226.502 184.203 226.414 184.511 226.236 C 184.829 226.059 185.071 225.812 185.239 225.494 C 185.407 225.168 185.491 224.79 185.491 224.36 C 185.491 223.931 185.403 223.558 185.225 223.24 C 185.057 222.914 184.819 222.662 184.511 222.484 C 184.203 222.298 183.839 222.204 183.419 222.204 C 182.999 222.204 182.631 222.298 182.313 222.484 C 181.996 222.662 181.744 222.914 181.557 223.24 C 181.38 223.558 181.291 223.926 181.291 224.346 C 181.291 224.766 181.38 225.14 181.557 225.466 C 181.744 225.793 181.996 226.05 182.313 226.236 C 182.64 226.414 183.013 226.502 183.433 226.502 Z M 191.611 227.944 C 190.948 227.944 190.351 227.795 189.819 227.496 C 189.287 227.188 188.867 226.773 188.559 226.25 C 188.251 225.728 188.097 225.135 188.097 224.472 C 188.097 223.819 188.246 223.231 188.545 222.708 C 188.853 222.186 189.263 221.775 189.777 221.476 C 190.299 221.168 190.883 221.014 191.527 221.014 C 192.143 221.014 192.684 221.154 193.151 221.434 C 193.627 221.714 193.995 222.102 194.257 222.596 C 194.527 223.091 194.663 223.651 194.663 224.276 C 194.663 224.37 194.658 224.472 194.649 224.584 C 194.639 224.687 194.621 224.808 194.593 224.948 L 188.979 224.948 L 188.979 223.898 L 193.921 223.898 L 193.459 224.304 C 193.459 223.856 193.379 223.478 193.221 223.17 C 193.062 222.853 192.838 222.61 192.549 222.442 C 192.259 222.265 191.909 222.176 191.499 222.176 C 191.069 222.176 190.691 222.27 190.365 222.456 C 190.038 222.643 189.786 222.904 189.609 223.24 C 189.431 223.576 189.343 223.973 189.343 224.43 C 189.343 224.897 189.436 225.308 189.623 225.662 C 189.809 226.008 190.075 226.278 190.421 226.474 C 190.766 226.661 191.163 226.754 191.611 226.754 C 191.984 226.754 192.325 226.689 192.633 226.558 C 192.95 226.428 193.221 226.232 193.445 225.97 L 194.257 226.796 C 193.939 227.17 193.547 227.454 193.081 227.65 C 192.623 227.846 192.133 227.944 191.611 227.944 Z M 200.741 227.804 L 200.741 223.926 C 200.741 223.422 200.582 223.007 200.265 222.68 C 199.947 222.354 199.537 222.19 199.033 222.19 C 198.697 222.19 198.398 222.265 198.137 222.414 C 197.875 222.564 197.67 222.769 197.521 223.03 C 197.371 223.292 197.297 223.59 197.297 223.926 L 196.779 223.632 C 196.779 223.128 196.891 222.68 197.115 222.288 C 197.339 221.896 197.651 221.588 198.053 221.364 C 198.454 221.131 198.907 221.014 199.411 221.014 C 199.915 221.014 200.358 221.14 200.741 221.392 C 201.133 221.644 201.441 221.976 201.665 222.386 C 201.889 222.788 202.001 223.217 202.001 223.674 L 202.001 227.804 L 200.741 227.804 Z M 196.037 227.804 L 196.037 221.154 L 197.297 221.154 L 197.297 227.804 L 196.037 227.804 Z M 204.647 227.804 L 204.647 218.368 L 205.907 218.368 L 205.907 227.804 L 204.647 227.804 Z M 203.009 222.302 L 203.009 221.154 L 207.545 221.154 L 207.545 222.302 L 203.009 222.302 Z M 210.804 227.804 L 214.78 218.088 L 215.732 218.088 L 219.694 227.804 L 218.266 227.804 L 215.004 219.586 L 215.494 219.586 L 212.204 227.804 L 210.804 227.804 Z M 212.694 225.606 L 212.694 224.458 L 217.804 224.458 L 217.804 225.606 L 212.694 225.606 Z M 221.157 227.804 L 221.157 218.088 L 222.473 218.088 L 222.473 227.804 L 221.157 227.804 Z M 226.568 227.804 L 230.544 218.088 L 231.496 218.088 L 235.458 227.804 L 234.03 227.804 L 230.768 219.586 L 231.258 219.586 L 227.968 227.804 L 226.568 227.804 Z M 228.458 225.606 L 228.458 224.458 L 233.568 224.458 L 233.568 225.606 L 228.458 225.606 Z M 238.92 227.944 C 238.547 227.944 238.192 227.898 237.856 227.804 C 237.53 227.702 237.226 227.562 236.946 227.384 C 236.666 227.198 236.424 226.978 236.218 226.726 L 237.03 225.914 C 237.273 226.213 237.553 226.437 237.87 226.586 C 238.188 226.726 238.542 226.796 238.934 226.796 C 239.326 226.796 239.63 226.731 239.844 226.6 C 240.059 226.46 240.166 226.269 240.166 226.026 C 240.166 225.784 240.078 225.597 239.9 225.466 C 239.732 225.326 239.513 225.214 239.242 225.13 C 238.972 225.037 238.682 224.948 238.374 224.864 C 238.076 224.771 237.791 224.654 237.52 224.514 C 237.25 224.374 237.026 224.183 236.848 223.94 C 236.68 223.698 236.596 223.376 236.596 222.974 C 236.596 222.573 236.694 222.228 236.89 221.938 C 237.086 221.64 237.357 221.411 237.702 221.252 C 238.057 221.094 238.482 221.014 238.976 221.014 C 239.499 221.014 239.961 221.108 240.362 221.294 C 240.773 221.472 241.109 221.742 241.37 222.106 L 240.558 222.918 C 240.372 222.676 240.138 222.489 239.858 222.358 C 239.588 222.228 239.28 222.162 238.934 222.162 C 238.57 222.162 238.29 222.228 238.094 222.358 C 237.908 222.48 237.814 222.652 237.814 222.876 C 237.814 223.1 237.898 223.273 238.066 223.394 C 238.234 223.516 238.454 223.618 238.724 223.702 C 239.004 223.786 239.294 223.875 239.592 223.968 C 239.891 224.052 240.176 224.169 240.446 224.318 C 240.717 224.468 240.936 224.668 241.104 224.92 C 241.282 225.172 241.37 225.504 241.37 225.914 C 241.37 226.54 241.146 227.034 240.698 227.398 C 240.26 227.762 239.667 227.944 238.92 227.944 Z M 244.895 227.944 C 244.521 227.944 244.167 227.898 243.831 227.804 C 243.504 227.702 243.201 227.562 242.921 227.384 C 242.641 227.198 242.398 226.978 242.193 226.726 L 243.005 225.914 C 243.247 226.213 243.527 226.437 243.845 226.586 C 244.162 226.726 244.517 226.796 244.909 226.796 C 245.301 226.796 245.604 226.731 245.819 226.6 C 246.033 226.46 246.141 226.269 246.141 226.026 C 246.141 225.784 246.052 225.597 245.875 225.466 C 245.707 225.326 245.487 225.214 245.217 225.13 C 244.946 225.037 244.657 224.948 244.349 224.864 C 244.05 224.771 243.765 224.654 243.495 224.514 C 243.224 224.374 243 224.183 242.823 223.94 C 242.655 223.698 242.571 223.376 242.571 222.974 C 242.571 222.573 242.669 222.228 242.865 221.938 C 243.061 221.64 243.331 221.411 243.677 221.252 C 244.031 221.094 244.456 221.014 244.951 221.014 C 245.473 221.014 245.935 221.108 246.337 221.294 C 246.747 221.472 247.083 221.742 247.345 222.106 L 246.533 222.918 C 246.346 222.676 246.113 222.489 245.833 222.358 C 245.562 222.228 245.254 222.162 244.909 222.162 C 244.545 222.162 244.265 222.228 244.069 222.358 C 243.882 222.48 243.789 222.652 243.789 222.876 C 243.789 223.1 243.873 223.273 244.041 223.394 C 244.209 223.516 244.428 223.618 244.699 223.702 C 244.979 223.786 245.268 223.875 245.567 223.968 C 245.865 224.052 246.15 224.169 246.421 224.318 C 246.691 224.468 246.911 224.668 247.079 224.92 C 247.256 225.172 247.345 225.504 247.345 225.914 C 247.345 226.54 247.121 227.034 246.673 227.398 C 246.234 227.762 245.641 227.944 244.895 227.944 Z M 248.769 227.804 L 248.769 221.154 L 250.029 221.154 L 250.029 227.804 L 248.769 227.804 Z M 249.399 219.824 C 249.166 219.824 248.975 219.75 248.825 219.6 C 248.676 219.442 248.601 219.246 248.601 219.012 C 248.601 218.788 248.676 218.602 248.825 218.452 C 248.975 218.294 249.166 218.214 249.399 218.214 C 249.633 218.214 249.824 218.294 249.973 218.452 C 250.123 218.602 250.197 218.788 250.197 219.012 C 250.197 219.246 250.123 219.442 249.973 219.6 C 249.824 219.75 249.633 219.824 249.399 219.824 Z M 254 227.944 C 253.627 227.944 253.272 227.898 252.936 227.804 C 252.61 227.702 252.306 227.562 252.026 227.384 C 251.746 227.198 251.504 226.978 251.298 226.726 L 252.11 225.914 C 252.353 226.213 252.633 226.437 252.95 226.586 C 253.268 226.726 253.622 226.796 254.014 226.796 C 254.406 226.796 254.71 226.731 254.924 226.6 C 255.139 226.46 255.246 226.269 255.246 226.026 C 255.246 225.784 255.158 225.597 254.98 225.466 C 254.812 225.326 254.593 225.214 254.322 225.13 C 254.052 225.037 253.762 224.948 253.454 224.864 C 253.156 224.771 252.871 224.654 252.6 224.514 C 252.33 224.374 252.106 224.183 251.928 223.94 C 251.76 223.698 251.676 223.376 251.676 222.974 C 251.676 222.573 251.774 222.228 251.97 221.938 C 252.166 221.64 252.437 221.411 252.782 221.252 C 253.137 221.094 253.562 221.014 254.056 221.014 C 254.579 221.014 255.041 221.108 255.442 221.294 C 255.853 221.472 256.189 221.742 256.45 222.106 L 255.638 222.918 C 255.452 222.676 255.218 222.489 254.938 222.358 C 254.668 222.228 254.36 222.162 254.014 222.162 C 253.65 222.162 253.37 222.228 253.174 222.358 C 252.988 222.48 252.894 222.652 252.894 222.876 C 252.894 223.1 252.978 223.273 253.146 223.394 C 253.314 223.516 253.534 223.618 253.804 223.702 C 254.084 223.786 254.374 223.875 254.672 223.968 C 254.971 224.052 255.256 224.169 255.526 224.318 C 255.797 224.468 256.016 224.668 256.184 224.92 C 256.362 225.172 256.45 225.504 256.45 225.914 C 256.45 226.54 256.226 227.034 255.778 227.398 C 255.34 227.762 254.747 227.944 254 227.944 Z M 258.883 227.804 L 258.883 218.368 L 260.143 218.368 L 260.143 227.804 L 258.883 227.804 Z M 257.245 222.302 L 257.245 221.154 L 261.781 221.154 L 261.781 222.302 L 257.245 222.302 Z M 265.638 227.944 C 265.031 227.944 264.481 227.795 263.986 227.496 C 263.491 227.188 263.099 226.773 262.81 226.25 C 262.53 225.728 262.39 225.14 262.39 224.486 C 262.39 223.833 262.53 223.245 262.81 222.722 C 263.099 222.2 263.487 221.784 263.972 221.476 C 264.467 221.168 265.022 221.014 265.638 221.014 C 266.142 221.014 266.59 221.122 266.982 221.336 C 267.383 221.542 267.705 221.831 267.948 222.204 C 268.191 222.568 268.326 222.993 268.354 223.478 L 268.354 225.48 C 268.326 225.956 268.191 226.381 267.948 226.754 C 267.715 227.128 267.397 227.422 266.996 227.636 C 266.604 227.842 266.151 227.944 265.638 227.944 Z M 265.848 226.754 C 266.473 226.754 266.977 226.544 267.36 226.124 C 267.743 225.695 267.934 225.149 267.934 224.486 C 267.934 224.029 267.845 223.632 267.668 223.296 C 267.5 222.951 267.257 222.685 266.94 222.498 C 266.623 222.302 266.254 222.204 265.834 222.204 C 265.414 222.204 265.041 222.302 264.714 222.498 C 264.397 222.694 264.145 222.965 263.958 223.31 C 263.781 223.646 263.692 224.034 263.692 224.472 C 263.692 224.92 263.781 225.317 263.958 225.662 C 264.145 225.998 264.401 226.264 264.728 226.46 C 265.055 226.656 265.428 226.754 265.848 226.754 Z M 267.85 227.804 L 267.85 226.012 L 268.088 224.388 L 267.85 222.778 L 267.85 221.154 L 269.124 221.154 L 269.124 227.804 L 267.85 227.804 Z M 275.663 227.804 L 275.663 223.926 C 275.663 223.422 275.504 223.007 275.187 222.68 C 274.869 222.354 274.459 222.19 273.955 222.19 C 273.619 222.19 273.32 222.265 273.059 222.414 C 272.797 222.564 272.592 222.769 272.443 223.03 C 272.293 223.292 272.219 223.59 272.219 223.926 L 271.701 223.632 C 271.701 223.128 271.813 222.68 272.037 222.288 C 272.261 221.896 272.573 221.588 272.975 221.364 C 273.376 221.131 273.829 221.014 274.333 221.014 C 274.837 221.014 275.28 221.14 275.663 221.392 C 276.055 221.644 276.363 221.976 276.587 222.386 C 276.811 222.788 276.923 223.217 276.923 223.674 L 276.923 227.804 L 275.663 227.804 Z M 270.959 227.804 L 270.959 221.154 L 272.219 221.154 L 272.219 227.804 L 270.959 227.804 Z M 279.568 227.804 L 279.568 218.368 L 280.828 218.368 L 280.828 227.804 L 279.568 227.804 Z M 277.93 222.302 L 277.93 221.154 L 282.466 221.154 L 282.466 222.302 L 277.93 222.302 Z" fill="#7100DE" style="stroke-width: 1;"/>
  <rect y="188.177" width="44.833" height="44.833" rx="12" fill="url(#paint0_linear_8977_4661)" x="91.306" style="stroke-width: 1;"/>
  <path fill-rule="evenodd" clip-rule="evenodd" d="M 108.445 219.99 L 117.41 211.022 C 118.824 209.608 118.821 207.315 117.403 205.905 C 115.991 204.501 113.71 204.503 112.301 205.91 L 103.327 214.869 C 101.912 216.283 101.911 218.576 103.325 219.991 C 104.739 221.405 107.032 221.405 108.445 219.99 Z M 112.288 208.465 L 114.85 211.026 L 116.13 209.746 C 116.837 209.039 116.837 207.892 116.13 207.185 C 115.423 206.477 114.276 206.477 113.569 207.185 L 112.288 208.465 Z" fill="white" style="stroke-width: 1;"/>
  <path d="M 106.857 200.651 C 106.942 200.335 107.39 200.335 107.475 200.651 L 107.933 202.351 C 107.963 202.462 108.049 202.548 108.159 202.577 L 109.86 203.035 C 110.176 203.12 110.176 203.568 109.86 203.653 L 108.159 204.111 C 108.049 204.141 107.963 204.227 107.933 204.337 L 107.475 206.038 C 107.39 206.354 106.942 206.354 106.857 206.038 L 106.399 204.337 C 106.369 204.227 106.283 204.141 106.173 204.111 L 104.473 203.653 C 104.157 203.568 104.157 203.12 104.473 203.035 L 106.173 202.577 C 106.283 202.548 106.369 202.462 106.399 202.351 L 106.857 200.651 Z" fill="white" style="stroke-width: 1;"/>
  <path d="M 119.664 199.371 C 119.749 199.056 120.197 199.056 120.282 199.371 L 120.74 201.072 C 120.769 201.182 120.856 201.268 120.966 201.298 L 122.666 201.756 C 122.982 201.841 122.982 202.289 122.666 202.374 L 120.966 202.832 C 120.856 202.862 120.769 202.948 120.74 203.058 L 120.282 204.759 C 120.197 205.074 119.749 205.074 119.664 204.759 L 119.206 203.058 C 119.176 202.948 119.09 202.862 118.98 202.832 L 117.279 202.374 C 116.963 202.289 116.963 201.841 117.279 201.756 L 118.98 201.298 C 119.09 201.268 119.176 201.182 119.206 201.072 L 119.664 199.371 Z" fill="white" style="stroke-width: 1;"/>
  <path d="M 120.943 210.899 C 121.028 210.583 121.476 210.583 121.561 210.899 L 122.019 212.599 C 122.049 212.71 122.135 212.796 122.245 212.825 L 123.946 213.283 C 124.261 213.368 124.261 213.816 123.946 213.901 L 122.245 214.359 C 122.135 214.389 122.049 214.475 122.019 214.585 L 121.561 216.286 C 121.476 216.602 121.028 216.602 120.943 216.286 L 120.485 214.585 C 120.455 214.475 120.369 214.389 120.259 214.359 L 118.559 213.901 C 118.243 213.816 118.243 213.368 118.559 213.283 L 120.259 212.825 C 120.369 212.796 120.455 212.71 120.485 212.599 L 120.943 210.899 Z" fill="white" style="stroke-width: 1;"/>
  <text style="white-space: pre; font-size: 16px;" x="98.345" y="55.863">`<tspan x="98.34500122070312" dy="1em">​</tspan></text>
  <text style="font-family: &quot;Stylus BT&quot;; font-size: 17.1053px; font-weight: 700; letter-spacing: 1.1px; word-spacing: -0.8px; white-space: pre; transform-box: fill-box; transform-origin: 50% 50%;" transform="matrix(1.053664, 0, 0, 1.110766, 2.463698, -0.958142)" x="151.477" y="208.533">GyaanGpt

</text>
</svg>